
<svg xmlns="http://www.w3.org/2000/svg" version="1.1" xmlns:xlink="http://www.w3.org/1999/xlink" preserveAspectRatio="none" x="0px" y="0px" width="24px" height="21px" viewBox="0 0 24 21">
<defs>
<g id="Symbol_8_0_Layer0_0_MEMBER_2_FILL">
<path fill="#FFFFFF" stroke="none" d="
M 19.6 32.25
L 28.5 25.25 19.5 18.25 19.6 32.25 Z"/>
</g>

<path id="Symbol_8_0_Layer0_0_MEMBER_0_1_STROKES" stroke="#FFFFFF" stroke-width="3.1" stroke-linejoin="round" stroke-linecap="round" fill="none" d="
M -0.021299743652321013 13.355859374999909
L -0.021299743652321013 17.540830993652207 21.57855377197268 17.540830993652207 21.57855377197268 13.355859374999909"/>

<path id="Symbol_8_0_Layer0_0_MEMBER_1_1_STROKES" stroke="#FFFFFF" stroke-width="4" stroke-linejoin="round" stroke-linecap="round" fill="none" d="
M 10.763641357421761 -0.014041137695244288
L 10.763641357421761 10.335888671875068"/>

<path id="Symbol_8_0_Layer0_0_MEMBER_2_1_STROKES" stroke="#FFFFFF" stroke-width="3.1" stroke-linejoin="round" stroke-linecap="round" fill="none" d="
M 6.7253463745117195 6.588781738281251
L 14.78876190185547 6.531185913085937 10.757054138183594 11.714810180664063 6.7253463745117195 6.588781738281251 Z"/>
</defs>

<g transform="matrix( 1, 0, 0, 1, 3.35,3.5) ">
<g transform="matrix( 0.79998779296875, 0, 0, 0.79998779296875, 0,0) ">
<g transform="matrix( 0.899993896484375, 0, 0, 0.899993896484375, -928.95,-597.2) ">
<use xlink:href="#Symbol_8_0_Layer0_0_MEMBER_0_1_STROKES" transform="matrix( 1.111114501953125, 0, 0, 1.111114501953125, 1032.15,663.55) "/>
</g>

<g transform="matrix( 0.899993896484375, 0, 0, 0.899993896484375, -926.85,-595.9) ">
<use xlink:href="#Symbol_8_0_Layer0_0_MEMBER_1_1_STROKES" transform="matrix( 1.111114501953125, 0, 0, 1.111114501953125, 1029.8,662.1) "/>
</g>

<g transform="matrix( 0, 0.575958251953125, -0.575958251953125, 0, 25.3,-4.7) ">
<use xlink:href="#Symbol_8_0_Layer0_0_MEMBER_2_FILL"/>

<use xlink:href="#Symbol_8_0_Layer0_0_MEMBER_2_1_STROKES" transform="matrix( 0, -1.736236572265625, 1.736236572265625, 0, 8.15,43.9) "/>
</g>
</g>
</g>
</svg>
